name C:\Users\antoi\Documents\MyRepositories\upper-imu-dc\Results\main_tracking\Case_89\kinematics.mot
datacolumns 10
datarows 56
range 4.62000000 5.17000000
endheader 
time	clav_prot	clav_elev	scapula_abduction	scapula_elevation	scapula_upward_rot	scapula_winging	plane_elv	shoulder_elv	axial_rot	
          4.62000000	        -39.29473690	          0.02367716	        -15.79257222	         -8.30163028	         49.20839517	         -6.83371823	         -2.00432468	         59.07214902	         14.99831443	
          4.63000000	        -39.38646595	          0.07196617	        -15.76366887	         -8.29204716	         49.44929812	         -6.91999216	         -1.80692423	         59.29902267	         14.95765411	
          4.64000000	        -39.47765510	          0.11960795	        -15.73561189	         -8.28238164	         49.68764896	         -7.00532346	         -1.60798238	         59.52466802	         14.91761086	
          4.65000000	        -39.56830360	          0.16669606	        -15.70854685	         -8.27256679	         49.92329610	         -7.08974979	         -1.40740264	         59.74905437	         14.87846891	
          4.66000000	        -39.65844634	          0.21327785	        -15.68258448	         -8.26257857	         50.15619078	         -7.17331271	         -1.20518379	         59.97213408	         14.84028727	
          4.67000000	        -39.74814814	          0.25935518	        -15.65779561	         -8.25243389	         50.38638163	         -7.25605449	         -1.00141540	         60.19384121	         14.80290728	
          4.68000000	        -39.83749514	          0.30488943	        -15.63420840	         -8.24218489	         50.61400232	         -7.33801527	         -0.79626447	         60.41409292	         14.76597893	
          4.69000000	        -39.92658445	          0.34981072	        -15.61180862	         -8.23190991	         50.83925278	         -7.41923079	         -0.58995379	         60.63279323	         14.72900502	
          4.70000000	        -40.01551318	          0.39403034	        -15.59054365	         -8.22170207	         51.06237573	         -7.49973097	         -0.38273490	         60.84983866	         14.69139815	
          4.71000000	        -40.10436769	          0.43745447	        -15.57032872	         -8.21165698	         51.28363114	         -7.57953923	         -0.17486071	         61.06512507	         14.65254203	
          4.72000000	        -40.19321374	          0.47999769	        -15.55105388	         -8.20186097	         51.50327167	         -7.65867213	          0.03343909	         61.27855472	         14.61184926	
          4.73000000	        -40.28208776	          0.52159478	        -15.53258977	         -8.19238105	         51.72152135	         -7.73713911	          0.24197760	         61.49004241	         14.56880989	
          4.74000000	        -40.37098990	          0.56220982	        -15.51479211	         -8.18325719	         51.93855881	         -7.81494212	          0.45062454	         61.69951993	         14.52302770	
          4.75000000	        -40.45987974	          0.60184234	        -15.49750609	         -8.17449742	         52.15450509	         -7.89207553	          0.65931499	         61.90693854	         14.47424509	
          4.76000000	        -40.54867574	          0.64053011	        -15.48057239	         -8.16607577	         52.36941576	         -7.96852660	          0.86805207	         62.11226952	         14.42235715	
          4.77000000	        -40.63725852	          0.67834873	        -15.46383521	         -8.15793304	         52.58327738	         -8.04427650	          1.07690501	         62.31550311	         14.36741624	
          4.78000000	        -40.72547721	          0.71540826	        -15.44715052	         -8.14998021	         52.79600871	         -8.11930197	          1.28600460	         62.51664601	         14.30962811	
          4.79000000	        -40.81315824	          0.75184738	        -15.43039377	         -8.14210383	         53.00746687	         -8.19357736	          1.49553539	         62.71571852	         14.24933914	
          4.80000000	        -40.90011588	          0.78782616	        -15.41346641	         -8.13417285	         53.21745800	         -8.26707712	          1.70572428	         62.91275241	         14.18701510	
          4.81000000	        -40.98616325	          0.82351807	        -15.39629993	         -8.12604602	         53.42575178	         -8.33977865	          1.91682628	         63.10779023	         14.12321279	
          4.82000000	        -41.07112269	          0.85910209	        -15.37885674	         -8.11757917	         53.63209885	         -8.41166491	          2.12910857	         63.30088601	         14.05854651	
          4.83000000	        -41.15483437	          0.89475568	        -15.36112754	         -8.10863173	         53.83624911	         -8.48272672	          2.34283413	         63.49210731	         13.99365229	
          4.84000000	        -41.23716207	          0.93064932	        -15.34312554	         -8.09907177	         54.03796927	         -8.55296425	          2.55824617	         63.68153823	         13.92915284	
          4.85000000	        -41.31799557	          0.96694319	        -15.32487749	         -8.08877897	         54.23705792	         -8.62238763	          2.77555545	         63.86928304	         13.86562732	
          4.86000000	        -41.39725040	          1.00378584	        -15.30641469	         -8.07764582	         54.43335623	         -8.69101684	          2.99492888	         64.05547026	         13.80358678	
          4.87000000	        -41.47486523	          1.04131476	        -15.28776399	         -8.06557704	         54.62675432	         -8.75888099	          3.21648085	         64.24025649	         13.74345665	
          4.88000000	        -41.55079693	          1.07965801	        -15.26893776	         -8.05248791	         54.81719473	         -8.82601664	          3.44027079	         64.42382960	         13.68556763	
          4.89000000	        -41.62501484	          1.11893565	        -15.24992537	         -8.03830257	         55.00467227	         -8.89246543	          3.66630386	         64.60640910	         13.63015218	
          4.90000000	        -41.69749619	          1.15925953	        -15.23068847	         -8.02295337	         55.18923074	         -8.95827115	          3.89453335	         64.78824356	         13.57734523	
          4.91000000	        -41.76822358	          1.20073073	        -15.21116090	         -8.00638207	         55.37095713	         -9.02347675	          4.12486345	         64.96960409	         13.52718754	
          4.92000000	        -41.83718549	          1.24343442	        -15.19125391	         -7.98854287	         55.54997438	         -9.08812153	          4.35715125	         65.15077485	         13.47962989	
          4.93000000	        -41.90437866	          1.28743242	        -15.17086390	         -7.96940733	         55.72643371	         -9.15223825	          4.59121011	         65.33204210	         13.43453849	
          4.94000000	        -41.96980950	          1.33275533	        -15.14988287	         -7.94896932	         55.90050156	         -9.21584953	          4.82681343	         65.51367548	         13.39170430	
          4.95000000	        -42.03349559	          1.37939571	        -15.12820903	         -7.92724931	         56.07234659	         -9.27896478	          5.06369905	         65.69591140	         13.35085372	
          4.96000000	        -42.09546453	          1.42730570	        -15.10575277	         -7.90429555	         56.24212888	         -9.34157829	          5.30157937	         65.87894135	         13.31166356	
          4.97000000	        -42.15575052	          1.47639942	        -15.08244031	         -7.88018177	         56.40998901	         -9.40366835	          5.54015245	         66.06290266	         13.27378113	
          4.98000000	        -42.21439295	          1.52655622	        -15.05822073	         -7.85500458	         56.57603719	         -9.46519800	          5.77910564	         66.24787275	         13.23683788	
          4.99000000	        -42.27143428	          1.57762505	        -15.03306536	         -7.82888029	         56.74035091	         -9.52611623	          6.01813012	         66.43386846	         13.20046749	
          5.00000000	        -42.32691533	          1.62943439	        -15.00696279	         -7.80193782	         56.90297514	         -9.58636059	          6.25692721	         66.62085193	         13.16431468	
          5.01000000	        -42.38087253	          1.68180085	        -14.97991431	         -7.77431275	         57.06392550	         -9.64586029	          6.49520972	         66.80873563	         13.12803668	
          5.02000000	        -42.43333655	          1.73453698	        -14.95192418	         -7.74614231	         57.22320024	         -9.70453971	          6.73270530	         66.99739450	         13.09129900	
          5.03000000	        -42.48433242	          1.78745723	        -14.92299044	         -7.71756168	         57.38079465	         -9.76232202	          6.96915484	         67.18667725	         13.05376285	
          5.04000000	        -42.53388114	          1.84038200	        -14.89309823	         -7.68870176	         57.53671396	         -9.81913233	          7.20430509	         67.37641613	         13.01506976	
          5.05000000	        -42.58200227	          1.89313984	        -14.86221587	         -7.65968800	         57.69098452	         -9.87490039	          7.43789541	         67.56643401	         12.97481925	
          5.06000000	        -42.62871401	          1.94557020	        -14.83028401	         -7.63063885	         57.84366881	         -9.92956232	          7.66965892	         67.75655488	         12.93255801	
          5.07000000	        -42.67403502	          1.99752425	        -14.79721476	         -7.60166535	         57.99487057	         -9.98306185	          7.89931379	         67.94660770	         12.88776724	
          5.08000000	        -42.71798585	          2.04886532	        -14.76289495	         -7.57287068	         58.14473373	        -10.03535105	          8.12655869	         68.13642836	         12.83986285	
          5.09000000	        -42.76058932	          2.09946955	        -14.72719099	         -7.54434951	         58.29343689	        -10.08639032	          8.35107524	         68.32586043	         12.78820613	
          5.10000000	        -42.80187040	          2.14922640	        -14.68995628	         -7.51618732	         58.44118402	        -10.13614811	          8.57253576	         68.51475445	         12.73212401	
          5.11000000	        -42.84185650	          2.19803859	        -14.65104140	         -7.48846006	         58.58819170	        -10.18460048	          8.79061416	         68.70296695	         12.67093595	
          5.12000000	        -42.88057839	          2.24582110	        -14.61030588	         -7.46123464	         58.73467553	        -10.23173061	          9.00499611	         68.89035856	         12.60398197	
          5.13000000	        -42.91806933	          2.29250073	        -14.56762569	         -7.43456895	         58.88083868	        -10.27752781	          9.21539704	         69.07679277	         12.53065424	
          5.14000000	        -42.95436501	          2.33801510	        -14.52290056	         -7.40851241	         59.02686185	        -10.32198672	          9.42157710	         69.26213529	         12.45042392	
          5.15000000	        -42.98950355	          2.38231141	        -14.47606110	         -7.38310676	         59.17289386	        -10.36510662	          9.62335328	         69.44625410	         12.36286518	
          5.16000000	        -43.02352544	          2.42534507	        -14.42707408	         -7.35838704	         59.31904423	        -10.40689069	          9.82060916	         69.62901944	         12.26767403	
          5.17000000	        -43.05647338	          2.46707794	        -14.37594559	         -7.33438283	         59.46537825	        -10.44734516	         10.01330163	         69.81030370	         12.16468074	
